<svg xmlns="http://www.w3.org/2000/svg" xmlns:xlink="http://www.w3.org/1999/xlink" width="120" zoomAndPan="magnify" viewBox="0 0 90 37.5" height="50" preserveAspectRatio="xMidYMid meet" version="1.0"><defs><g/><clipPath id="5d2ca44af9"><path d="M 5 7 L 28.183594 7 L 28.183594 33.40625 L 5 33.40625 Z M 5 7 " clip-rule="nonzero"/></clipPath><clipPath id="85b7e119ef"><path d="M 10 2.546875 L 22 2.546875 L 22 13 L 10 13 Z M 10 2.546875 " clip-rule="nonzero"/></clipPath><clipPath id="ec1f84b552"><path d="M 1.925781 9 L 9 9 L 9 33.40625 L 1.925781 33.40625 Z M 1.925781 9 " clip-rule="nonzero"/></clipPath></defs><g fill="#4d3e3e" fill-opacity="1"><g transform="translate(26.580773, 18.593757)"><g><path d="M 0.976562 0 L 2.820312 0 L 2.820312 -2.261719 L 4.152344 -2.261719 C 6.113281 -2.261719 7.378906 -3.410156 7.378906 -5.1875 C 7.378906 -6.972656 6.113281 -8.121094 4.152344 -8.121094 L 0.976562 -8.121094 Z M 2.808594 -3.851562 L 2.808594 -6.507812 L 4.003906 -6.507812 C 4.964844 -6.507812 5.5 -6.023438 5.5 -5.175781 C 5.5 -4.328125 4.964844 -3.851562 4.003906 -3.851562 Z M 2.808594 -3.851562 "/></g></g></g><g fill="#4d3e3e" fill-opacity="1"><g transform="translate(34.291298, 18.593757)"><g><path d="M 3.757812 0.164062 C 5.257812 0.164062 6.441406 -0.601562 6.972656 -1.890625 L 5.1875 -1.890625 C 4.894531 -1.484375 4.375 -1.253906 3.792969 -1.253906 C 2.992188 -1.253906 2.367188 -1.707031 2.203125 -2.542969 L 7.089844 -2.542969 C 7.195312 -4.769531 5.871094 -6.253906 3.78125 -6.253906 C 1.808594 -6.253906 0.453125 -4.941406 0.453125 -3.050781 C 0.453125 -1.148438 1.796875 0.164062 3.757812 0.164062 Z M 2.214844 -3.65625 C 2.414062 -4.398438 3.015625 -4.851562 3.792969 -4.851562 C 4.605469 -4.851562 5.1875 -4.398438 5.382812 -3.65625 Z M 2.214844 -3.65625 "/></g></g></g><g fill="#4d3e3e" fill-opacity="1"><g transform="translate(41.816307, 18.593757)"><g><path d="M 2.914062 0.117188 C 3.816406 0.117188 4.558594 -0.175781 5.082031 -0.707031 L 5.28125 0 L 6.589844 0 L 6.589844 -3.667969 C 6.589844 -5.28125 5.5 -6.253906 3.679688 -6.253906 C 2.125 -6.253906 1.101562 -5.511719 0.882812 -4.1875 L 2.574219 -4.1875 C 2.679688 -4.617188 3.121094 -4.90625 3.691406 -4.90625 C 4.386719 -4.90625 4.863281 -4.511719 4.863281 -3.910156 L 4.863281 -3.632812 L 2.65625 -3.632812 C 1.390625 -3.632812 0.582031 -2.902344 0.582031 -1.773438 C 0.582031 -0.601562 1.472656 0.117188 2.914062 0.117188 Z M 2.320312 -1.84375 C 2.320312 -2.261719 2.667969 -2.53125 3.203125 -2.53125 L 4.875 -2.53125 C 4.839844 -1.707031 4.199219 -1.148438 3.320312 -1.148438 C 2.714844 -1.148438 2.320312 -1.425781 2.320312 -1.84375 Z M 2.320312 -1.84375 "/></g></g></g><g fill="#4d3e3e" fill-opacity="1"><g transform="translate(49.167399, 18.593757)"><g><path d="M 0.882812 0 L 2.644531 0 L 2.644531 -2.691406 C 2.644531 -4.003906 3.261719 -4.492188 4.269531 -4.492188 L 4.941406 -4.492188 L 4.941406 -6.089844 L 4.28125 -6.089844 C 3.386719 -6.089844 2.820312 -5.847656 2.425781 -5.28125 L 2.191406 -6.089844 L 0.882812 -6.089844 Z M 0.882812 0 "/></g></g></g><g fill="#4d3e3e" fill-opacity="1"><g transform="translate(54.500999, 18.593757)"><g><path d="M 0.882812 0 L 2.644531 0 L 2.644531 -8.585938 L 0.882812 -8.585938 Z M 0.882812 0 "/></g></g></g><g fill="#4d3e3e" fill-opacity="1"><g transform="translate(58.025811, 18.593757)"><g><path d="M 3.804688 0.164062 C 5.730469 0.164062 6.914062 -0.753906 6.914062 -2.285156 C 6.914062 -3.574219 6.066406 -4.339844 4.050781 -4.816406 C 2.808594 -5.105469 2.378906 -5.417969 2.378906 -5.917969 C 2.378906 -6.453125 2.855469 -6.777344 3.632812 -6.777344 C 4.480469 -6.777344 4.988281 -6.335938 4.988281 -5.605469 L 6.765625 -5.605469 C 6.765625 -7.242188 5.535156 -8.285156 3.609375 -8.285156 C 1.742188 -8.285156 0.582031 -7.367188 0.582031 -5.882812 C 0.582031 -4.558594 1.472656 -3.769531 3.375 -3.363281 C 4.523438 -3.121094 5.046875 -2.785156 5.046875 -2.214844 C 5.046875 -1.671875 4.558594 -1.359375 3.792969 -1.359375 C 2.902344 -1.359375 2.320312 -1.808594 2.320312 -2.585938 L 0.511719 -2.585938 C 0.511719 -0.90625 1.761719 0.164062 3.804688 0.164062 Z M 3.804688 0.164062 "/></g></g></g><g fill="#4d3e3e" fill-opacity="1"><g transform="translate(65.458068, 18.593757)"><g><path d="M 0.882812 0 L 2.644531 0 L 2.644531 -3.203125 C 2.644531 -4.164062 3.179688 -4.746094 3.992188 -4.746094 C 4.746094 -4.746094 5.199219 -4.234375 5.199219 -3.339844 L 5.199219 0 L 6.960938 0 L 6.960938 -3.515625 C 6.960938 -5.210938 6.011719 -6.253906 4.433594 -6.253906 C 3.746094 -6.253906 3.109375 -6.046875 2.644531 -5.628906 L 2.644531 -8.585938 L 0.882812 -8.585938 Z M 0.882812 0 "/></g></g></g><g fill="#4d3e3e" fill-opacity="1"><g transform="translate(73.180193, 18.593757)"><g><path d="M 3.875 0.164062 C 5.894531 0.164062 7.285156 -1.148438 7.285156 -3.050781 C 7.285156 -4.941406 5.894531 -6.253906 3.875 -6.253906 C 1.84375 -6.253906 0.453125 -4.941406 0.453125 -3.050781 C 0.453125 -1.148438 1.84375 0.164062 3.875 0.164062 Z M 2.191406 -3.050781 C 2.191406 -4.050781 2.890625 -4.746094 3.875 -4.746094 C 4.863281 -4.746094 5.546875 -4.050781 5.546875 -3.050781 C 5.546875 -2.054688 4.863281 -1.359375 3.875 -1.359375 C 2.890625 -1.359375 2.191406 -2.054688 2.191406 -3.050781 Z M 2.191406 -3.050781 "/></g></g></g><g fill="#4d3e3e" fill-opacity="1"><g transform="translate(80.913906, 18.593757)"><g><path d="M 4.570312 0.164062 C 6.394531 0.164062 7.679688 -1.160156 7.679688 -3.050781 C 7.679688 -4.917969 6.394531 -6.253906 4.570312 -6.253906 C 3.691406 -6.253906 2.9375 -5.941406 2.390625 -5.394531 L 2.191406 -6.089844 L 0.882812 -6.089844 L 0.882812 2.320312 L 2.644531 2.320312 L 2.644531 -0.476562 C 3.15625 -0.0703125 3.816406 0.164062 4.570312 0.164062 Z M 2.574219 -3.050781 C 2.574219 -4.039062 3.273438 -4.746094 4.257812 -4.746094 C 5.257812 -4.746094 5.941406 -4.039062 5.941406 -3.050781 C 5.941406 -2.054688 5.257812 -1.359375 4.257812 -1.359375 C 3.273438 -1.359375 2.574219 -2.054688 2.574219 -3.050781 Z M 2.574219 -3.050781 "/></g></g></g><g fill="#fa6000" fill-opacity="1"><g transform="translate(32.76671, 27.443343)"><g><path d="M 2.203125 -0.546875 L 1.046875 -0.546875 L 0.859375 0 L 0.078125 0 L 1.1875 -3.09375 L 2.0625 -3.09375 L 3.1875 0 L 2.390625 0 Z M 2 -1.125 L 1.625 -2.265625 L 1.25 -1.125 Z M 2 -1.125 "/></g></g></g><g fill="#fa6000" fill-opacity="1"><g transform="translate(37.776797, 27.443343)"><g><path d="M 0.125 -1.234375 C 0.125 -1.484375 0.171875 -1.703125 0.265625 -1.890625 C 0.359375 -2.085938 0.488281 -2.238281 0.65625 -2.34375 C 0.820312 -2.445312 1.003906 -2.5 1.203125 -2.5 C 1.367188 -2.5 1.515625 -2.460938 1.640625 -2.390625 C 1.773438 -2.328125 1.882812 -2.238281 1.96875 -2.125 L 1.96875 -3.265625 L 2.71875 -3.265625 L 2.71875 0 L 1.96875 0 L 1.96875 -0.359375 C 1.894531 -0.234375 1.789062 -0.132812 1.65625 -0.0625 C 1.53125 0 1.378906 0.03125 1.203125 0.03125 C 1.003906 0.03125 0.820312 -0.0195312 0.65625 -0.125 C 0.488281 -0.226562 0.359375 -0.375 0.265625 -0.5625 C 0.171875 -0.757812 0.125 -0.984375 0.125 -1.234375 Z M 1.96875 -1.234375 C 1.96875 -1.421875 1.914062 -1.566406 1.8125 -1.671875 C 1.707031 -1.785156 1.578125 -1.84375 1.421875 -1.84375 C 1.273438 -1.84375 1.148438 -1.785156 1.046875 -1.671875 C 0.941406 -1.566406 0.890625 -1.421875 0.890625 -1.234375 C 0.890625 -1.046875 0.941406 -0.894531 1.046875 -0.78125 C 1.148438 -0.675781 1.273438 -0.625 1.421875 -0.625 C 1.578125 -0.625 1.707031 -0.675781 1.8125 -0.78125 C 1.914062 -0.894531 1.96875 -1.046875 1.96875 -1.234375 Z M 1.96875 -1.234375 "/></g></g></g><g fill="#fa6000" fill-opacity="1"><g transform="translate(42.531538, 27.443343)"><g><path d="M 3.40625 -2.484375 C 3.71875 -2.484375 3.960938 -2.390625 4.140625 -2.203125 C 4.316406 -2.023438 4.40625 -1.769531 4.40625 -1.4375 L 4.40625 0 L 3.65625 0 L 3.65625 -1.328125 C 3.65625 -1.492188 3.613281 -1.617188 3.53125 -1.703125 C 3.445312 -1.785156 3.332031 -1.828125 3.1875 -1.828125 C 3.039062 -1.828125 2.925781 -1.785156 2.84375 -1.703125 C 2.757812 -1.617188 2.71875 -1.492188 2.71875 -1.328125 L 2.71875 0 L 1.96875 0 L 1.96875 -1.328125 C 1.96875 -1.492188 1.925781 -1.617188 1.84375 -1.703125 C 1.757812 -1.785156 1.644531 -1.828125 1.5 -1.828125 C 1.351562 -1.828125 1.238281 -1.785156 1.15625 -1.703125 C 1.070312 -1.617188 1.03125 -1.492188 1.03125 -1.328125 L 1.03125 0 L 0.265625 0 L 0.265625 -2.453125 L 1.03125 -2.453125 L 1.03125 -2.15625 C 1.101562 -2.25 1.203125 -2.328125 1.328125 -2.390625 C 1.453125 -2.453125 1.59375 -2.484375 1.75 -2.484375 C 1.925781 -2.484375 2.085938 -2.441406 2.234375 -2.359375 C 2.378906 -2.285156 2.492188 -2.175781 2.578125 -2.03125 C 2.660156 -2.164062 2.773438 -2.273438 2.921875 -2.359375 C 3.078125 -2.441406 3.238281 -2.484375 3.40625 -2.484375 Z M 3.40625 -2.484375 "/></g></g></g><g fill="#fa6000" fill-opacity="1"><g transform="translate(48.959246, 27.443343)"><g><path d="M 0.65625 -2.71875 C 0.519531 -2.71875 0.410156 -2.753906 0.328125 -2.828125 C 0.242188 -2.910156 0.203125 -3.007812 0.203125 -3.125 C 0.203125 -3.238281 0.242188 -3.332031 0.328125 -3.40625 C 0.410156 -3.488281 0.519531 -3.53125 0.65625 -3.53125 C 0.78125 -3.53125 0.882812 -3.488281 0.96875 -3.40625 C 1.050781 -3.332031 1.09375 -3.238281 1.09375 -3.125 C 1.09375 -3.007812 1.050781 -2.910156 0.96875 -2.828125 C 0.882812 -2.753906 0.78125 -2.71875 0.65625 -2.71875 Z M 1.03125 -2.453125 L 1.03125 0 L 0.265625 0 L 0.265625 -2.453125 Z M 1.03125 -2.453125 "/></g></g></g><g fill="#fa6000" fill-opacity="1"><g transform="translate(52.023408, 27.443343)"><g><path d="M 1.765625 -2.484375 C 2.054688 -2.484375 2.285156 -2.390625 2.453125 -2.203125 C 2.628906 -2.015625 2.71875 -1.757812 2.71875 -1.4375 L 2.71875 0 L 1.96875 0 L 1.96875 -1.328125 C 1.96875 -1.492188 1.925781 -1.625 1.84375 -1.71875 C 1.757812 -1.8125 1.644531 -1.859375 1.5 -1.859375 C 1.351562 -1.859375 1.238281 -1.8125 1.15625 -1.71875 C 1.070312 -1.625 1.03125 -1.492188 1.03125 -1.328125 L 1.03125 0 L 0.265625 0 L 0.265625 -2.453125 L 1.03125 -2.453125 L 1.03125 -2.125 C 1.101562 -2.238281 1.203125 -2.328125 1.328125 -2.390625 C 1.460938 -2.453125 1.609375 -2.484375 1.765625 -2.484375 Z M 1.765625 -2.484375 "/></g></g></g><g fill="#fa6000" fill-opacity="1"><g transform="translate(56.756136, 27.443343)"><g/></g></g><g fill="#fa6000" fill-opacity="1"><g transform="translate(59.454887, 27.443343)"><g><path d="M 2.625 -2.09375 C 2.625 -1.914062 2.582031 -1.753906 2.5 -1.609375 C 2.425781 -1.460938 2.300781 -1.34375 2.125 -1.25 C 1.957031 -1.15625 1.75 -1.109375 1.5 -1.109375 L 1.03125 -1.109375 L 1.03125 0 L 0.265625 0 L 0.265625 -3.09375 L 1.5 -3.09375 C 1.738281 -3.09375 1.941406 -3.050781 2.109375 -2.96875 C 2.285156 -2.882812 2.414062 -2.765625 2.5 -2.609375 C 2.582031 -2.460938 2.625 -2.289062 2.625 -2.09375 Z M 1.4375 -1.703125 C 1.582031 -1.703125 1.6875 -1.734375 1.75 -1.796875 C 1.820312 -1.867188 1.859375 -1.96875 1.859375 -2.09375 C 1.859375 -2.21875 1.820312 -2.3125 1.75 -2.375 C 1.6875 -2.445312 1.582031 -2.484375 1.4375 -2.484375 L 1.03125 -2.484375 L 1.03125 -1.703125 Z M 1.4375 -1.703125 "/></g></g></g><g fill="#fa6000" fill-opacity="1"><g transform="translate(63.967487, 27.443343)"><g><path d="M 0.125 -1.234375 C 0.125 -1.484375 0.171875 -1.703125 0.265625 -1.890625 C 0.359375 -2.085938 0.488281 -2.238281 0.65625 -2.34375 C 0.820312 -2.445312 1.003906 -2.5 1.203125 -2.5 C 1.378906 -2.5 1.53125 -2.460938 1.65625 -2.390625 C 1.789062 -2.316406 1.894531 -2.222656 1.96875 -2.109375 L 1.96875 -2.453125 L 2.71875 -2.453125 L 2.71875 0 L 1.96875 0 L 1.96875 -0.34375 C 1.894531 -0.226562 1.789062 -0.132812 1.65625 -0.0625 C 1.53125 0 1.378906 0.03125 1.203125 0.03125 C 1.003906 0.03125 0.820312 -0.0195312 0.65625 -0.125 C 0.488281 -0.226562 0.359375 -0.375 0.265625 -0.5625 C 0.171875 -0.757812 0.125 -0.984375 0.125 -1.234375 Z M 1.96875 -1.234375 C 1.96875 -1.421875 1.914062 -1.566406 1.8125 -1.671875 C 1.707031 -1.785156 1.578125 -1.84375 1.421875 -1.84375 C 1.273438 -1.84375 1.148438 -1.785156 1.046875 -1.671875 C 0.941406 -1.566406 0.890625 -1.421875 0.890625 -1.234375 C 0.890625 -1.046875 0.941406 -0.894531 1.046875 -0.78125 C 1.148438 -0.675781 1.273438 -0.625 1.421875 -0.625 C 1.578125 -0.625 1.707031 -0.675781 1.8125 -0.78125 C 1.914062 -0.894531 1.96875 -1.046875 1.96875 -1.234375 Z M 1.96875 -1.234375 "/></g></g></g><g fill="#fa6000" fill-opacity="1"><g transform="translate(68.722226, 27.443343)"><g><path d="M 1.765625 -2.484375 C 2.054688 -2.484375 2.285156 -2.390625 2.453125 -2.203125 C 2.628906 -2.015625 2.71875 -1.757812 2.71875 -1.4375 L 2.71875 0 L 1.96875 0 L 1.96875 -1.328125 C 1.96875 -1.492188 1.925781 -1.625 1.84375 -1.71875 C 1.757812 -1.8125 1.644531 -1.859375 1.5 -1.859375 C 1.351562 -1.859375 1.238281 -1.8125 1.15625 -1.71875 C 1.070312 -1.625 1.03125 -1.492188 1.03125 -1.328125 L 1.03125 0 L 0.265625 0 L 0.265625 -2.453125 L 1.03125 -2.453125 L 1.03125 -2.125 C 1.101562 -2.238281 1.203125 -2.328125 1.328125 -2.390625 C 1.460938 -2.453125 1.609375 -2.484375 1.765625 -2.484375 Z M 1.765625 -2.484375 "/></g></g></g><g fill="#fa6000" fill-opacity="1"><g transform="translate(73.454954, 27.443343)"><g><path d="M 2.59375 -1.265625 C 2.59375 -1.191406 2.585938 -1.117188 2.578125 -1.046875 L 0.875 -1.046875 C 0.882812 -0.890625 0.929688 -0.769531 1.015625 -0.6875 C 1.109375 -0.613281 1.21875 -0.578125 1.34375 -0.578125 C 1.53125 -0.578125 1.660156 -0.65625 1.734375 -0.8125 L 2.53125 -0.8125 C 2.488281 -0.65625 2.414062 -0.507812 2.3125 -0.375 C 2.207031 -0.25 2.070312 -0.148438 1.90625 -0.078125 C 1.75 -0.00390625 1.566406 0.03125 1.359375 0.03125 C 1.117188 0.03125 0.90625 -0.015625 0.71875 -0.109375 C 0.53125 -0.210938 0.382812 -0.359375 0.28125 -0.546875 C 0.175781 -0.742188 0.125 -0.972656 0.125 -1.234375 C 0.125 -1.484375 0.175781 -1.703125 0.28125 -1.890625 C 0.382812 -2.085938 0.53125 -2.238281 0.71875 -2.34375 C 0.90625 -2.445312 1.117188 -2.5 1.359375 -2.5 C 1.597656 -2.5 1.8125 -2.445312 2 -2.34375 C 2.1875 -2.238281 2.332031 -2.09375 2.4375 -1.90625 C 2.539062 -1.726562 2.59375 -1.515625 2.59375 -1.265625 Z M 1.8125 -1.46875 C 1.8125 -1.59375 1.769531 -1.691406 1.6875 -1.765625 C 1.601562 -1.847656 1.492188 -1.890625 1.359375 -1.890625 C 1.234375 -1.890625 1.125 -1.851562 1.03125 -1.78125 C 0.945312 -1.707031 0.894531 -1.601562 0.875 -1.46875 Z M 1.8125 -1.46875 "/></g></g></g><g fill="#fa6000" fill-opacity="1"><g transform="translate(77.932336, 27.443343)"><g><path d="M 1.03125 -3.265625 L 1.03125 0 L 0.265625 0 L 0.265625 -3.265625 Z M 1.03125 -3.265625 "/></g></g></g><g clip-path="url(#5d2ca44af9)"><path fill="#fa6000" d="M 28.207031 26.605469 C 26.71875 27.234375 25.21875 27.839844 23.722656 28.441406 L 21.472656 29.332031 C 21.09375 29.480469 20.722656 29.640625 20.335938 29.757812 C 19.953125 29.875 19.566406 29.988281 19.183594 30.117188 L 9.992188 33.101562 L 9.371094 33.304688 L 9.273438 32.660156 L 5.734375 9.246094 L 5.644531 8.65625 L 6.242188 8.613281 L 15.789062 7.96875 L 16.984375 7.886719 C 17.382812 7.851562 17.777344 7.808594 18.179688 7.820312 L 20.578125 7.824219 C 22.175781 7.824219 23.773438 7.84375 25.375 7.875 C 23.792969 8.121094 22.210938 8.355469 20.628906 8.574219 L 18.25 8.898438 C 17.855469 8.960938 17.457031 8.972656 17.058594 8.992188 L 15.867188 9.070312 L 6.316406 9.714844 L 6.828125 9.082031 L 10.367188 32.496094 L 9.648438 32.050781 L 18.84375 29.066406 C 19.226562 28.945312 19.605469 28.808594 19.988281 28.679688 C 20.367188 28.546875 20.761719 28.457031 21.152344 28.355469 L 23.5 27.753906 C 25.066406 27.359375 26.632812 26.972656 28.207031 26.605469 " fill-opacity="1" fill-rule="nonzero"/></g><g clip-path="url(#85b7e119ef)"><path fill="#fa6000" d="M 11.347656 12.972656 L 10.667969 8.480469 C 10.464844 7.132812 10.804688 5.804688 11.621094 4.742188 C 12.4375 3.675781 13.636719 3.007812 14.992188 2.855469 C 17.773438 2.546875 20.378906 4.542969 20.796875 7.308594 L 21.476562 11.800781 L 20.382812 11.964844 L 19.703125 7.472656 C 19.375 5.289062 17.320312 3.707031 15.117188 3.953125 C 14.058594 4.070312 13.128906 4.589844 12.496094 5.414062 C 11.863281 6.238281 11.605469 7.269531 11.761719 8.316406 L 12.441406 12.808594 L 11.347656 12.972656 " fill-opacity="1" fill-rule="nonzero"/></g><path fill="#fa6000" d="M 19.503906 12.042969 C 19.621094 12.824219 20.355469 13.390625 21.144531 13.300781 C 21.933594 13.214844 22.476562 12.507812 22.355469 11.722656 C 22.238281 10.941406 21.503906 10.375 20.714844 10.464844 C 19.925781 10.550781 19.386719 11.257812 19.503906 12.042969 " fill-opacity="1" fill-rule="nonzero"/><path fill="#fa6000" d="M 10.46875 13.050781 C 10.585938 13.832031 11.320312 14.398438 12.109375 14.308594 C 12.898438 14.222656 13.441406 13.515625 13.320312 12.730469 C 13.203125 11.949219 12.46875 11.382812 11.679688 11.472656 C 10.890625 11.558594 10.347656 12.265625 10.46875 13.050781 " fill-opacity="1" fill-rule="nonzero"/><g clip-path="url(#ec1f84b552)"><path fill="#fa6000" d="M 4.722656 9.003906 C 4.769531 9.484375 4.808594 9.964844 4.839844 10.445312 C 4.878906 10.925781 4.898438 11.402344 4.921875 11.882812 C 4.933594 12.121094 4.957031 12.359375 4.953125 12.597656 C 4.945312 12.714844 4.921875 12.832031 4.90625 12.953125 C 4.890625 13.070312 4.882812 13.1875 4.871094 13.304688 L 4.738281 14.722656 L 3.132812 31.714844 L 2.308594 31.183594 C 2.402344 31.132812 2.464844 31.101562 2.539062 31.066406 C 2.609375 31.035156 2.683594 31.003906 2.753906 30.972656 C 2.898438 30.914062 3.042969 30.863281 3.191406 30.816406 C 3.484375 30.722656 3.785156 30.644531 4.09375 30.589844 C 4.402344 30.546875 4.71875 30.574219 5.03125 30.609375 C 5.339844 30.652344 5.648438 30.722656 5.941406 30.824219 C 6.527344 31.027344 7.050781 31.367188 7.472656 31.777344 C 7.898438 32.1875 8.226562 32.667969 8.480469 33.171875 C 8.101562 32.753906 7.671875 32.394531 7.210938 32.117188 C 6.75 31.84375 6.246094 31.671875 5.746094 31.609375 C 5.496094 31.578125 5.246094 31.574219 4.996094 31.59375 C 4.746094 31.609375 4.503906 31.671875 4.257812 31.710938 C 4.011719 31.738281 3.765625 31.789062 3.527344 31.867188 C 3.40625 31.90625 3.289062 31.949219 3.175781 31.996094 C 3.117188 32.019531 3.058594 32.042969 3.003906 32.070312 C 2.953125 32.09375 2.886719 32.125 2.859375 32.140625 L 1.9375 32.652344 L 2.035156 31.609375 L 3.101562 20.28125 L 3.636719 14.617188 L 3.769531 13.199219 C 3.78125 13.082031 3.792969 12.964844 3.800781 12.847656 C 3.808594 12.726562 3.804688 12.609375 3.824219 12.492188 C 3.863281 12.257812 3.933594 12.027344 3.984375 11.792969 C 4.097656 11.328125 4.210938 10.859375 4.335938 10.398438 C 4.457031 9.933594 4.585938 9.46875 4.722656 9.003906 " fill-opacity="1" fill-rule="nonzero"/></g><path fill="#4d3e3e" d="M 16.160156 23.214844 C 15.300781 23.433594 14.378906 23.828125 13.78125 24.335938 C 13.132812 24.882812 12.859375 25.417969 12.808594 25.875 C 12.757812 26.359375 12.945312 26.765625 13.238281 27.054688 C 14.386719 28.179688 16.304688 28.175781 17.859375 27.347656 C 18.820312 26.839844 19.574219 26.355469 20.15625 25.902344 C 19.992188 26.347656 19.75 26.792969 19.417969 27.230469 C 18.097656 28.96875 16.246094 29.859375 14.503906 30.300781 C 11.875 30.964844 9.488281 30.621094 9.488281 30.621094 C 9.402344 30.609375 9.328125 30.664062 9.3125 30.75 C 9.300781 30.832031 9.359375 30.910156 9.445312 30.921875 C 9.445312 30.921875 11.886719 31.277344 14.578125 30.597656 C 16.382812 30.140625 18.292969 29.214844 19.660156 27.417969 C 20.128906 26.800781 20.425781 26.175781 20.589844 25.550781 C 20.925781 25.261719 21.1875 24.992188 21.390625 24.742188 C 21.664062 24.40625 21.835938 24.101562 21.9375 23.839844 C 21.957031 23.832031 21.976562 23.820312 21.996094 23.8125 C 22.460938 23.605469 22.667969 23.128906 22.769531 22.519531 C 22.902344 21.699219 22.847656 20.628906 23.140625 19.777344 C 23.605469 18.4375 24.710938 17.921875 25.5 18.101562 C 25.582031 18.121094 25.664062 18.066406 25.683594 17.984375 C 25.703125 17.902344 25.652344 17.820312 25.570312 17.800781 C 24.667969 17.597656 23.382812 18.152344 22.855469 19.675781 C 22.554688 20.542969 22.601562 21.632812 22.464844 22.46875 C 22.398438 22.878906 22.292969 23.226562 22.042969 23.429688 C 22.097656 22.988281 21.933594 22.695312 21.742188 22.570312 C 21.636719 22.503906 21.523438 22.476562 21.410156 22.492188 C 20.960938 22.558594 20.820312 23.011719 20.957031 23.394531 C 21.035156 23.613281 21.207031 23.804688 21.445312 23.871094 C 21.488281 23.882812 21.53125 23.890625 21.578125 23.894531 C 21.484375 24.09375 21.347656 24.3125 21.15625 24.546875 C 21.027344 24.703125 20.875 24.867188 20.699219 25.039062 C 20.867188 23.929688 20.648438 22.847656 20.238281 21.882812 C 19.546875 20.242188 18.316406 18.953125 17.597656 18.484375 C 16.488281 17.761719 15.5625 17.457031 14.871094 17.453125 C 14.375 17.453125 13.988281 17.597656 13.722656 17.851562 C 13.453125 18.109375 13.300781 18.472656 13.285156 18.917969 C 13.265625 19.539062 13.523438 20.324219 14.105469 21.15625 C 14.667969 21.960938 15.433594 22.6875 16.160156 23.214844 Z M 20.316406 25.382812 C 20.605469 24.195312 20.390625 23.027344 19.957031 22 C 19.296875 20.429688 18.121094 19.191406 17.429688 18.742188 C 16.386719 18.058594 15.519531 17.761719 14.867188 17.761719 C 14.464844 17.757812 14.148438 17.867188 13.933594 18.074219 C 13.71875 18.277344 13.601562 18.574219 13.589844 18.925781 C 13.574219 19.5 13.820312 20.214844 14.355469 20.980469 C 14.957031 21.839844 15.796875 22.613281 16.554688 23.125 C 16.949219 23.046875 17.3125 23.007812 17.613281 23.015625 C 17.90625 23.027344 18.136719 23.078125 18.285156 23.171875 C 18.414062 23.253906 18.484375 23.367188 18.496094 23.503906 C 18.511719 23.699219 18.460938 23.835938 18.371094 23.925781 C 18.246094 24.050781 18.023438 24.097656 17.734375 24.03125 C 17.40625 23.960938 16.96875 23.753906 16.496094 23.445312 C 15.613281 23.636719 14.605469 24.035156 13.976562 24.566406 C 13.410156 25.046875 13.15625 25.507812 13.113281 25.910156 C 13.070312 26.289062 13.222656 26.609375 13.453125 26.835938 C 14.511719 27.875 16.28125 27.839844 17.71875 27.078125 C 18.863281 26.46875 19.707031 25.898438 20.316406 25.382812 Z M 16.941406 23.367188 C 17.265625 23.554688 17.5625 23.683594 17.800781 23.734375 C 17.890625 23.753906 17.976562 23.761719 18.042969 23.753906 C 18.089844 23.75 18.128906 23.738281 18.152344 23.710938 C 18.191406 23.671875 18.199219 23.613281 18.191406 23.527344 C 18.1875 23.46875 18.136719 23.433594 18.070312 23.402344 C 17.957031 23.351562 17.796875 23.328125 17.605469 23.324219 C 17.410156 23.316406 17.183594 23.332031 16.941406 23.367188 Z M 21.699219 23.585938 C 21.714844 23.527344 21.726562 23.46875 21.734375 23.414062 C 21.773438 23.152344 21.71875 22.964844 21.617188 22.859375 C 21.570312 22.8125 21.511719 22.785156 21.457031 22.796875 C 21.269531 22.820312 21.203125 22.984375 21.214844 23.148438 C 21.226562 23.316406 21.316406 23.488281 21.476562 23.558594 C 21.539062 23.589844 21.613281 23.597656 21.699219 23.585938 Z M 21.699219 23.585938 " fill-opacity="1" fill-rule="evenodd"/></svg>