<svg xmlns="http://www.w3.org/2000/svg" xmlns:xlink="http://www.w3.org/1999/xlink" width="60" zoomAndPan="magnify" viewBox="0 0 45 44.999999" height="60" preserveAspectRatio="xMidYMid meet" version="1.0"><defs><clipPath id="d8c1a8ab80"><path d="M 5.089844 12.003906 L 40.191406 12.003906 L 40.191406 38.179688 L 5.089844 38.179688 Z M 5.089844 12.003906 " clip-rule="nonzero"/></clipPath><clipPath id="89dda0799c"><path d="M 27.050781 38.46875 L 32 38.46875 L 32 43.523438 L 27.050781 43.523438 Z M 27.050781 38.46875 " clip-rule="nonzero"/></clipPath><clipPath id="1e1765bbb3"><path d="M 19.144531 38.761719 L 24 38.761719 L 24 43.523438 L 19.144531 43.523438 Z M 19.144531 38.761719 " clip-rule="nonzero"/></clipPath><clipPath id="4424da99b0"><path d="M 18 1.53125 L 33 1.53125 L 33 14 L 18 14 Z M 18 1.53125 " clip-rule="nonzero"/></clipPath><clipPath id="5a5bf314b2"><path d="M 25 1.53125 L 33 1.53125 L 33 14 L 25 14 Z M 25 1.53125 " clip-rule="nonzero"/></clipPath></defs><g clip-path="url(#d8c1a8ab80)"><path fill="#f35c7a" d="M 36.683594 22.179688 L 31.664062 22.214844 L 32.167969 19.097656 L 37.769531 19.035156 Z M 33.972656 30.046875 L 30.390625 30.085938 L 30.886719 27.023438 L 35.027344 26.992188 Z M 15.742188 27.125 L 19.628906 27.097656 L 20.203125 30.203125 L 17.054688 30.242188 Z M 18.171875 19.261719 L 18.738281 22.308594 L 13.722656 22.34375 L 12.449219 19.328125 Z M 25.707031 22.257812 L 25.671875 19.171875 L 31.152344 19.109375 L 30.648438 22.222656 Z M 25.761719 27.058594 L 29.871094 27.03125 L 29.375 30.097656 L 25.800781 30.140625 Z M 24.761719 27.0625 L 24.796875 30.152344 L 21.222656 30.191406 L 20.644531 27.09375 Z M 19.753906 22.300781 L 19.1875 19.25 L 24.671875 19.183594 L 24.707031 22.265625 Z M 19.945312 23.339844 L 24.71875 23.304688 L 24.75 26.070312 L 20.460938 26.097656 Z M 14.160156 23.378906 L 18.929688 23.34375 L 19.445312 26.105469 L 15.320312 26.132812 Z M 31.496094 23.253906 L 36.328125 23.21875 L 35.367188 25.996094 L 31.046875 26.027344 Z M 30.035156 26.035156 L 25.75 26.0625 L 25.722656 23.296875 L 30.480469 23.261719 Z M 39.949219 17.46875 C 39.707031 17.128906 39.3125 16.941406 38.878906 16.941406 L 11.574219 17.257812 L 9.855469 13.195312 C 9.617188 12.625 9.019531 12.234375 8.402344 12.242188 L 5.089844 12.28125 L 5.113281 14.355469 L 8.070312 14.320312 L 17.703125 37.140625 C 17.941406 37.710938 18.542969 38.101562 19.164062 38.09375 L 32.949219 37.9375 L 32.925781 35.859375 L 19.492188 36.015625 L 17.929688 32.308594 L 34.390625 32.117188 C 35.019531 32.113281 35.628906 31.675781 35.828125 31.082031 L 40.113281 18.644531 C 40.257812 18.234375 40.195312 17.804688 39.949219 17.46875 " fill-opacity="1" fill-rule="nonzero"/></g><g clip-path="url(#89dda0799c)"><path fill="#f35c7a" d="M 29.453125 38.753906 C 28.15625 38.769531 27.113281 39.832031 27.128906 41.121094 C 27.144531 42.414062 28.207031 43.445312 29.511719 43.433594 C 30.8125 43.414062 31.851562 42.359375 31.835938 41.066406 C 31.820312 39.777344 30.753906 38.742188 29.453125 38.753906 " fill-opacity="1" fill-rule="nonzero"/></g><g clip-path="url(#1e1765bbb3)"><path fill="#f35c7a" d="M 21.53125 38.847656 C 20.234375 38.859375 19.191406 39.917969 19.207031 41.210938 C 19.222656 42.503906 20.285156 43.539062 21.585938 43.523438 C 22.886719 43.507812 23.925781 42.449219 23.910156 41.160156 C 23.894531 39.867188 22.832031 38.832031 21.53125 38.847656 " fill-opacity="1" fill-rule="nonzero"/></g><g clip-path="url(#4424da99b0)"><path fill="#bc2967" d="M 32.042969 3.105469 C 31.464844 2.210938 30.53125 1.671875 29.339844 1.550781 C 29.21875 1.535156 29.097656 1.527344 28.96875 1.53125 C 27.652344 1.550781 26.269531 2.347656 25.648438 3.675781 C 24.976562 2.367188 23.570312 1.617188 22.25 1.640625 C 22.121094 1.640625 22 1.652344 21.875 1.667969 C 20.695312 1.832031 19.777344 2.402344 19.230469 3.3125 C 18.578125 4.386719 18.519531 5.863281 19.066406 7.359375 C 20.25 10.570312 25.394531 13.738281 25.613281 13.875 C 25.613281 13.875 25.621094 13.871094 25.625 13.875 C 25.625 13.882812 25.628906 13.882812 25.632812 13.882812 C 25.683594 13.910156 25.734375 13.917969 25.785156 13.917969 C 25.796875 13.921875 25.808594 13.925781 25.8125 13.925781 C 25.875 13.925781 25.9375 13.910156 25.992188 13.878906 C 25.992188 13.878906 25.996094 13.871094 26.003906 13.871094 C 26.003906 13.867188 26.011719 13.867188 26.011719 13.867188 C 26.226562 13.726562 31.261719 10.398438 32.335938 7.140625 C 32.839844 5.628906 32.730469 4.160156 32.042969 3.105469 " fill-opacity="1" fill-rule="nonzero"/></g><g clip-path="url(#5a5bf314b2)"><path fill="#db3d8c" d="M 29.300781 1.914062 C 27.71875 1.75 25.644531 3.015625 25.667969 5.28125 L 25.808594 13.554688 C 25.820312 13.546875 30.9375 10.1875 31.984375 7.027344 C 32.835938 4.449219 31.8125 2.179688 29.300781 1.914062 " fill-opacity="1" fill-rule="nonzero"/></g><path fill="#bc2967" d="M 25.671875 5.292969 C 25.636719 3.019531 23.511719 1.816406 21.929688 2.035156 C 19.429688 2.378906 18.480469 4.683594 19.414062 7.230469 C 20.570312 10.359375 25.808594 13.558594 25.808594 13.558594 L 25.808594 13.554688 L 25.667969 5.28125 C 25.667969 5.285156 25.671875 5.289062 25.671875 5.292969 " fill-opacity="1" fill-rule="nonzero"/></svg>